<?xml version="1.0" encoding="UTF-8" standalone="no"?>
<!-- Created with Inkscape (http://www.inkscape.org/) -->

<svg
   width="509.66986mm"
   height="129.50146mm"
   viewBox="0 0 509.66987 129.50146"
   version="1.1"
   id="svg1"
   xml:space="preserve"
   inkscape:version="1.4-beta (62f545b, 2024-04-22)"
   sodipodi:docname="Ego-Concept.svg"
   xmlns:inkscape="http://www.inkscape.org/namespaces/inkscape"
   xmlns:sodipodi="http://sodipodi.sourceforge.net/DTD/sodipodi-0.dtd"
   xmlns="http://www.w3.org/2000/svg"
   xmlns:svg="http://www.w3.org/2000/svg"><sodipodi:namedview
     id="namedview1"
     pagecolor="#ffffff"
     bordercolor="#666666"
     borderopacity="1.0"
     inkscape:showpageshadow="2"
     inkscape:pageopacity="1.0"
     inkscape:pagecheckerboard="0"
     inkscape:deskcolor="#d1d1d1"
     inkscape:document-units="mm"
     inkscape:zoom="0.72070006"
     inkscape:cx="905.36971"
     inkscape:cy="164.42346"
     inkscape:window-width="1920"
     inkscape:window-height="1011"
     inkscape:window-x="1920"
     inkscape:window-y="32"
     inkscape:window-maximized="1"
     inkscape:current-layer="layer1" /><defs
     id="defs1"><marker
       style="overflow:visible"
       id="Triangle"
       refX="0"
       refY="0"
       orient="auto-start-reverse"
       inkscape:stockid="Triangle arrow"
       markerWidth="1"
       markerHeight="1"
       viewBox="0 0 1 1"
       inkscape:isstock="true"
       inkscape:collect="always"
       preserveAspectRatio="xMidYMid"><path
         transform="scale(0.5)"
         style="fill:context-stroke;fill-rule:evenodd;stroke:context-stroke;stroke-width:1pt"
         d="M 5.77,0 -2.88,5 V -5 Z"
         id="path135" /></marker><rect
       x="571.66639"
       y="99.902864"
       width="423.19963"
       height="66.60191"
       id="rect30" /><rect
       x="2120.1609"
       y="127.65366"
       width="488.414"
       height="277.50797"
       id="rect29" /><rect
       x="571.66638"
       y="99.902863"
       width="423.19962"
       height="66.601913"
       id="rect30-1" /><rect
       x="571.66638"
       y="99.902863"
       width="423.19962"
       height="66.601913"
       id="rect30-4" /><marker
       style="overflow:visible"
       id="Triangle-3"
       refX="0"
       refY="0"
       orient="auto-start-reverse"
       inkscape:stockid="Triangle arrow"
       markerWidth="1"
       markerHeight="1"
       viewBox="0 0 1 1"
       inkscape:isstock="true"
       inkscape:collect="always"
       preserveAspectRatio="xMidYMid"><path
         transform="scale(0.5)"
         style="fill:context-stroke;fill-rule:evenodd;stroke:context-stroke;stroke-width:1pt"
         d="M 5.77,0 -2.88,5 V -5 Z"
         id="path135-2" /></marker><marker
       style="overflow:visible"
       id="Triangle-5"
       refX="0"
       refY="0"
       orient="auto-start-reverse"
       inkscape:stockid="Triangle arrow"
       markerWidth="1"
       markerHeight="1"
       viewBox="0 0 1 1"
       inkscape:isstock="true"
       inkscape:collect="always"
       preserveAspectRatio="xMidYMid"><path
         transform="scale(0.5)"
         style="fill:context-stroke;fill-rule:evenodd;stroke:context-stroke;stroke-width:1pt"
         d="M 5.77,0 -2.88,5 V -5 Z"
         id="path135-4" /></marker></defs><g
     inkscape:label="Layer 1"
     inkscape:groupmode="layer"
     id="layer1"
     transform="translate(760.6192,-171.78929)"><g
       id="g27"
       transform="matrix(0.32639356,0,0,0.32639356,-512.35799,202.95139)"><path
         d="m -634.3239,17.135761 -89.97024,-1.672166"
         stroke="#000000"
         stroke-width="5.45703"
         stroke-linecap="butt"
         stroke-linejoin="miter"
         stroke-miterlimit="8"
         stroke-opacity="1"
         fill="none"
         fill-rule="evenodd"
         id="path1" /><path
         d="m -636.45247,20.646782 6.50748,-80.060799"
         stroke="#000000"
         stroke-width="5.45703"
         stroke-linecap="butt"
         stroke-linejoin="miter"
         stroke-miterlimit="8"
         stroke-opacity="1"
         fill="none"
         fill-rule="evenodd"
         id="path2" /><path
         d="M -536.43997,112.57626 -499.3274,5.1448447"
         stroke="#000000"
         stroke-width="5.45703"
         stroke-linecap="butt"
         stroke-linejoin="miter"
         stroke-miterlimit="8"
         stroke-opacity="1"
         fill="none"
         fill-rule="evenodd"
         id="path3" /><path
         d="M -539.52104,106.47497 -635.9233,18.374011"
         stroke="#000000"
         stroke-width="5.45703"
         stroke-linecap="butt"
         stroke-linejoin="miter"
         stroke-miterlimit="8"
         stroke-opacity="1"
         fill="none"
         fill-rule="evenodd"
         id="path4" /><path
         d="M -496.11747,8.2828031 -541.46705,-77.405154"
         stroke="#000000"
         stroke-width="5.45703"
         stroke-linecap="butt"
         stroke-linejoin="miter"
         stroke-miterlimit="8"
         stroke-opacity="1"
         fill="none"
         fill-rule="evenodd"
         id="path5" /><path
         d="m -496.22331,7.9891156 56.35466,-83.2765446"
         stroke="#000000"
         stroke-width="5.45703"
         stroke-linecap="butt"
         stroke-linejoin="miter"
         stroke-miterlimit="8"
         stroke-opacity="1"
         fill="none"
         fill-rule="evenodd"
         id="path6" /><path
         d="M -400.42033,54.812428 -439.33789,-69.467654"
         stroke="#000000"
         stroke-width="5.45703"
         stroke-linecap="butt"
         stroke-linejoin="miter"
         stroke-miterlimit="8"
         stroke-opacity="1"
         fill="none"
         fill-rule="evenodd"
         id="path7" /><path
         d="m -396.47539,54.164198 14.94941,-83.678711"
         stroke="#000000"
         stroke-width="5.45703"
         stroke-linecap="butt"
         stroke-linejoin="miter"
         stroke-miterlimit="8"
         stroke-opacity="1"
         fill="none"
         fill-rule="evenodd"
         id="path8" /><path
         d="M -500.07564,5.9385948 -639.89285,16.727774"
         stroke="#000000"
         stroke-width="5.45703"
         stroke-linecap="butt"
         stroke-linejoin="miter"
         stroke-miterlimit="8"
         stroke-opacity="1"
         fill="none"
         fill-rule="evenodd"
         id="path9" /><path
         d="m -536.96914,104.62818 73.79758,163.64214"
         stroke="#000000"
         stroke-width="5.45703"
         stroke-linecap="butt"
         stroke-linejoin="miter"
         stroke-miterlimit="8"
         stroke-opacity="1"
         fill="none"
         fill-rule="evenodd"
         id="path10" /><path
         d="M -537.4983,107.51214 -400.50843,53.564393"
         stroke="#000000"
         stroke-width="5.45703"
         stroke-linecap="butt"
         stroke-linejoin="miter"
         stroke-miterlimit="8"
         stroke-opacity="1"
         fill="none"
         fill-rule="evenodd"
         id="path11" /><path
         d="m -536.76488,106.74484 -74.02301,54.66265"
         stroke="#000000"
         stroke-width="5.45703"
         stroke-linecap="butt"
         stroke-linejoin="miter"
         stroke-miterlimit="8"
         stroke-opacity="1"
         fill="none"
         fill-rule="evenodd"
         id="path12" /><path
         d="m -448.33108,131.70299 -89.16722,-22.5769"
         stroke="#000000"
         stroke-width="5.45703"
         stroke-linecap="butt"
         stroke-linejoin="miter"
         stroke-miterlimit="8"
         stroke-opacity="1"
         fill="none"
         fill-rule="evenodd"
         id="path13" /><path
         d="m -445.95247,131.6342 57.56037,-6.89848"
         stroke="#000000"
         stroke-width="5.45703"
         stroke-linecap="butt"
         stroke-linejoin="miter"
         stroke-miterlimit="8"
         stroke-opacity="1"
         fill="none"
         fill-rule="evenodd"
         id="path14" /><path
         d="m -448.33372,132.14484 76.454,79.93063"
         stroke="#000000"
         stroke-width="5.45703"
         stroke-linecap="butt"
         stroke-linejoin="miter"
         stroke-miterlimit="8"
         stroke-opacity="1"
         fill="none"
         fill-rule="evenodd"
         id="path15" /><path
         d="M -516.93515,235.03336 -537.76289,107.53859"
         stroke="#000000"
         stroke-width="5.45703"
         stroke-linecap="butt"
         stroke-linejoin="miter"
         stroke-miterlimit="8"
         stroke-opacity="1"
         fill="none"
         fill-rule="evenodd"
         id="path16" /><path
         d="m -519.03647,235.41172 -94.92642,-78.39604"
         stroke="#000000"
         stroke-width="5.45703"
         stroke-linecap="butt"
         stroke-linejoin="miter"
         stroke-miterlimit="8"
         stroke-opacity="1"
         fill="none"
         fill-rule="evenodd"
         id="path17" /><path
         d="M -578.46506,267.3628 -608.67122,162.83651"
         stroke="#000000"
         stroke-width="5.45703"
         stroke-linecap="butt"
         stroke-linejoin="miter"
         stroke-miterlimit="8"
         stroke-opacity="1"
         fill="none"
         fill-rule="evenodd"
         id="path18" /><path
         d="m -742.02122,148.54901 125.36461,11.6496"
         stroke="#000000"
         stroke-width="5.45703"
         stroke-linecap="butt"
         stroke-linejoin="miter"
         stroke-miterlimit="8"
         stroke-opacity="1"
         fill="none"
         fill-rule="evenodd"
         id="path19" /><path
         d="m -614.1047,161.24901 -67.59125,81.59591"
         stroke="#000000"
         stroke-width="5.45703"
         stroke-linecap="butt"
         stroke-linejoin="miter"
         stroke-miterlimit="8"
         stroke-opacity="1"
         fill="none"
         fill-rule="evenodd"
         id="path20" /><path
         d="m -462.09206,-75.817654 c 0,-10.374842 8.41111,-18.785417 18.78542,-18.785417 10.37431,0 18.78542,8.410575 18.78542,18.785417 0,10.374841 -8.41111,18.785416 -18.78542,18.785416 -10.37431,0 -18.78542,-8.410575 -18.78542,-18.785416 z"
         stroke="#172c51"
         stroke-width="1.21267"
         stroke-linecap="butt"
         stroke-linejoin="miter"
         stroke-miterlimit="8"
         stroke-opacity="1"
         fill="#dba97d"
         fill-rule="evenodd"
         fill-opacity="1"
         id="path21" /><path
         d="m -561.57539,-75.949946 c 0,-10.447866 8.41058,-18.917708 18.78542,-18.917708 10.37484,0 18.78542,8.469842 18.78542,18.917708 0,10.447867 -8.41058,18.917708 -18.78542,18.917708 -10.37484,0 -18.78542,-8.469841 -18.78542,-18.917708 z"
         stroke="#172c51"
         stroke-width="1.21267"
         stroke-linecap="butt"
         stroke-linejoin="miter"
         stroke-miterlimit="8"
         stroke-opacity="1"
         fill="#dba97d"
         fill-rule="evenodd"
         fill-opacity="1"
         id="path22" /><path
         d="m -397.53372,-31.367655 c 0,-10.374841 8.4111,-18.785416 18.78541,-18.785416 10.37432,0 18.78542,8.410575 18.78542,18.785416 0,10.374842 -8.4111,18.785417 -18.78542,18.785417 -10.37431,0 -18.78541,-8.410575 -18.78541,-18.785417 z"
         stroke="#172c51"
         stroke-width="1.21267"
         stroke-linecap="butt"
         stroke-linejoin="miter"
         stroke-miterlimit="8"
         stroke-opacity="1"
         fill="#dba97d"
         fill-rule="evenodd"
         fill-opacity="1"
         id="path23" /><path
         d="m -517.38997,6.2031781 c 0,-10.3743123 8.46931,-18.7854161 18.91771,-18.7854161 10.44839,0 18.9177,8.4111038 18.9177,18.7854161 0,10.3743129 -8.46931,18.7854169 -18.9177,18.7854169 -10.4484,0 -18.91771,-8.411104 -18.91771,-18.7854169 z"
         stroke="#172c51"
         stroke-width="1.21267"
         stroke-linecap="butt"
         stroke-linejoin="miter"
         stroke-miterlimit="8"
         stroke-opacity="1"
         fill="#db8235"
         fill-rule="evenodd"
         fill-opacity="1"
         id="path24" /><path
         d="m -465.53164,130.82193 c 0,-10.37432 8.41111,-18.78542 18.78542,-18.78542 10.37431,0 18.78541,8.4111 18.78541,18.78542 0,10.37431 -8.4111,18.78541 -18.78541,18.78541 -10.37431,0 -18.78542,-8.4111 -18.78542,-18.78541 z"
         stroke="#172c51"
         stroke-width="1.21267"
         stroke-linecap="butt"
         stroke-linejoin="miter"
         stroke-miterlimit="8"
         stroke-opacity="1"
         fill="#db8235"
         fill-rule="evenodd"
         fill-opacity="1"
         id="path25" /><path
         d="m -555.22539,108.06776 c 0,-10.374312 8.41058,-18.785416 18.78542,-18.785416 10.37484,0 18.78542,8.411104 18.78542,18.785416 0,10.37431 -8.41058,18.78542 -18.78542,18.78542 -10.37484,0 -18.78542,-8.41111 -18.78542,-18.78542 z"
         stroke="#172c51"
         stroke-width="1.21267"
         stroke-linecap="butt"
         stroke-linejoin="miter"
         stroke-miterlimit="8"
         stroke-opacity="1"
         fill="#000000"
         fill-rule="evenodd"
         fill-opacity="1"
         id="path26" /><path
         d="m -416.58372,54.886511 c 0,-10.374313 8.4111,-18.785417 18.78541,-18.785417 10.37432,0 18.78542,8.411104 18.78542,18.785417 0,10.374312 -8.4111,18.785416 -18.78542,18.785416 -10.37431,0 -18.78541,-8.411104 -18.78541,-18.785416 z"
         stroke="#172c51"
         stroke-width="1.21267"
         stroke-linecap="butt"
         stroke-linejoin="miter"
         stroke-miterlimit="8"
         stroke-opacity="1"
         fill="#db8235"
         fill-rule="evenodd"
         fill-opacity="1"
         id="path27" /><path
         d="m -408.38164,125.39797 c 0,-10.4484 8.46931,-18.91771 18.91771,-18.91771 10.44839,0 18.91771,8.46931 18.91771,18.91771 0,10.44839 -8.46932,18.91771 -18.91771,18.91771 -10.4484,0 -18.91771,-8.46932 -18.91771,-18.91771 z"
         stroke="#172c51"
         stroke-width="1.21267"
         stroke-linecap="butt"
         stroke-linejoin="miter"
         stroke-miterlimit="8"
         stroke-opacity="1"
         fill="#dba97d"
         fill-rule="evenodd"
         fill-opacity="1"
         id="path28" /><path
         d="m -389.33164,211.78443 c 0,-10.37432 8.4111,-18.78542 18.78542,-18.78542 10.37431,0 18.78541,8.4111 18.78541,18.78542 0,10.37431 -8.4111,18.78541 -18.78541,18.78541 -10.37432,0 -18.78542,-8.4111 -18.78542,-18.78541 z"
         stroke="#172c51"
         stroke-width="1.21267"
         stroke-linecap="butt"
         stroke-linejoin="miter"
         stroke-miterlimit="8"
         stroke-opacity="1"
         fill="#dba97d"
         fill-rule="evenodd"
         fill-opacity="1"
         id="path29" /><path
         d="m -655.50247,17.315678 c 0,-10.3743124 8.46984,-18.7854164 18.91771,-18.7854164 10.44786,0 18.91771,8.411104 18.91771,18.7854164 0,10.374312 -8.46985,18.785416 -18.91771,18.785416 -10.44787,0 -18.91771,-8.411104 -18.91771,-18.785416 z"
         stroke="#172c51"
         stroke-width="1.21267"
         stroke-linecap="butt"
         stroke-linejoin="miter"
         stroke-miterlimit="8"
         stroke-opacity="1"
         fill="#db8235"
         fill-rule="evenodd"
         fill-opacity="1"
         id="path30" /><path
         d="m -740.96289,18.374011 c 0,-10.374312 8.46985,-18.78541611 18.91771,-18.78541611 10.44787,0 18.91771,8.41110411 18.91771,18.78541611 0,10.374313 -8.46984,18.785417 -18.91771,18.785417 -10.44786,0 -18.91771,-8.411104 -18.91771,-18.785417 z"
         stroke="#172c51"
         stroke-width="1.21267"
         stroke-linecap="butt"
         stroke-linejoin="miter"
         stroke-miterlimit="8"
         stroke-opacity="1"
         fill="#dba97d"
         fill-rule="evenodd"
         fill-opacity="1"
         id="path31" /><path
         d="m -648.09414,-57.032238 c 0,-10.374841 8.41058,-18.785416 18.78542,-18.785416 10.37484,0 18.78542,8.410575 18.78542,18.785416 0,10.374842 -8.41058,18.785417 -18.78542,18.785417 -10.37484,0 -18.78542,-8.410575 -18.78542,-18.785417 z"
         stroke="#172c51"
         stroke-width="1.21267"
         stroke-linecap="butt"
         stroke-linejoin="miter"
         stroke-miterlimit="8"
         stroke-opacity="1"
         fill="#dba97d"
         fill-rule="evenodd"
         fill-opacity="1"
         id="path32" /><path
         d="m -760.01286,149.60734 c 0,-10.37431 8.46974,-18.78541 18.91768,-18.78541 10.44787,0 18.91771,8.4111 18.91771,18.78541 0,10.37432 -8.46984,18.78542 -18.91771,18.78542 -10.44794,0 -18.91768,-8.4111 -18.91768,-18.78542 z"
         stroke="#172c51"
         stroke-width="1.21267"
         stroke-linecap="butt"
         stroke-linejoin="miter"
         stroke-miterlimit="8"
         stroke-opacity="1"
         fill="#dba97d"
         fill-rule="evenodd"
         fill-opacity="1"
         id="path33" /><path
         d="m -599.4108,268.80213 c 0,-10.44839 8.41057,-18.9177 18.78541,-18.9177 10.37484,0 18.78542,8.46931 18.78542,18.9177 0,10.4484 -8.41058,18.91771 -18.78542,18.91771 -10.37484,0 -18.78541,-8.46931 -18.78541,-18.91771 z"
         stroke="#172c51"
         stroke-width="1.21267"
         stroke-linecap="butt"
         stroke-linejoin="miter"
         stroke-miterlimit="8"
         stroke-opacity="1"
         fill="#dba97d"
         fill-rule="evenodd"
         fill-opacity="1"
         id="path34" /><path
         d="m -703.12747,244.06359 c 0,-10.37431 8.41058,-18.78541 18.78542,-18.78541 10.37484,0 18.78541,8.4111 18.78541,18.78541 0,10.37431 -8.41057,18.78542 -18.78541,18.78542 -10.37484,0 -18.78542,-8.41111 -18.78542,-18.78542 z"
         stroke="#172c51"
         stroke-width="1.21267"
         stroke-linecap="butt"
         stroke-linejoin="miter"
         stroke-miterlimit="8"
         stroke-opacity="1"
         fill="#dba97d"
         fill-rule="evenodd"
         fill-opacity="1"
         id="path35" /><path
         d="m -480.87747,281.76672 c 0,-10.4484 8.4111,-18.91771 18.78541,-18.91771 10.37432,0 18.78542,8.46931 18.78542,18.91771 0,10.44839 -8.4111,18.9177 -18.78542,18.9177 -10.37431,0 -18.78541,-8.46931 -18.78541,-18.9177 z"
         stroke="#172c51"
         stroke-width="1.21267"
         stroke-linecap="butt"
         stroke-linejoin="miter"
         stroke-miterlimit="8"
         stroke-opacity="1"
         fill="#db8235"
         fill-rule="evenodd"
         fill-opacity="1"
         id="path36" /><path
         d="m -629.30872,160.19068 c 0,-10.37432 8.41057,-18.78542 18.78542,-18.78542 10.37484,0 18.78541,8.4111 18.78541,18.78542 0,10.37431 -8.41057,18.78541 -18.78541,18.78541 -10.37485,0 -18.78542,-8.4111 -18.78542,-18.78541 z"
         stroke="#172c51"
         stroke-width="1.21267"
         stroke-linecap="butt"
         stroke-linejoin="miter"
         stroke-miterlimit="8"
         stroke-opacity="1"
         fill="#db8235"
         fill-rule="evenodd"
         fill-opacity="1"
         id="path37" /><path
         d="m -535.9108,235.20005 c 0,-10.4484 8.41057,-18.91771 18.78541,-18.91771 10.37431,0 18.78542,8.46931 18.78542,18.91771 0,10.4484 -8.41111,18.91771 -18.78542,18.91771 -10.37484,0 -18.78541,-8.46931 -18.78541,-18.91771 z"
         stroke="#172c51"
         stroke-width="1.21267"
         stroke-linecap="butt"
         stroke-linejoin="miter"
         stroke-miterlimit="8"
         stroke-opacity="1"
         fill="#db8235"
         fill-rule="evenodd"
         fill-opacity="1"
         id="path38" /></g><path
       d="m -595.12454,232.11417 h 36.31367 v -4.42587 l 8.85172,8.85173 -8.85172,8.85172 v -4.42586 h -36.31367 z"
       stroke="#000000"
       stroke-width="0.395808"
       stroke-linecap="butt"
       stroke-linejoin="miter"
       stroke-miterlimit="8"
       stroke-opacity="1"
       fill="#000000"
       fill-rule="evenodd"
       fill-opacity="1"
       id="path39" /><g
       id="g28"
       transform="matrix(0.32639356,0,0,0.32639356,-505.69881,213.98316)"><path
         d="m 30.826688,70.961489 c 0,-38.795854 31.390166,-70.246874 70.114582,-70.246874 38.72442,0 70.11458,31.45102 70.11458,70.246874 0,38.795861 -31.39016,70.246881 -70.11458,70.246881 -38.724416,0 -70.114582,-31.45102 -70.114582,-70.246881 z"
         stroke="#000000"
         stroke-width="3.94118"
         stroke-linecap="butt"
         stroke-linejoin="miter"
         stroke-miterlimit="8"
         stroke-opacity="1"
         fill="none"
         fill-rule="evenodd"
         id="path40" /><path
         d="m -18.650395,70.696906 c 0,-65.682812 53.247396,-118.930207 118.930205,-118.930207 65.68281,0 118.93021,53.247395 118.93021,118.930207 0,65.682814 -53.2474,118.930214 -118.93021,118.930214 -65.682809,0 -118.930205,-53.2474 -118.930205,-118.930214 z"
         stroke="#000000"
         stroke-width="3.94118"
         stroke-linecap="butt"
         stroke-linejoin="miter"
         stroke-miterlimit="8"
         stroke-opacity="1"
         fill="none"
         fill-rule="evenodd"
         id="path41" /><path
         d="m 81.362104,-47.174968 c 0,-10.374841 8.411104,-18.785416 18.785416,-18.785416 10.37431,0 18.78542,8.410575 18.78542,18.785416 0,10.374842 -8.41111,18.785417 -18.78542,18.785417 -10.374312,0 -18.785416,-8.410575 -18.785416,-18.785417 z"
         stroke="#172c51"
         stroke-width="1.21267"
         stroke-linecap="butt"
         stroke-linejoin="miter"
         stroke-miterlimit="8"
         stroke-opacity="1"
         fill="#dba97d"
         fill-rule="evenodd"
         fill-opacity="1"
         id="path42" /><path
         d="m 69.191271,6.800031 c 0,-10.374312 8.411104,-18.785416 18.785416,-18.785416 10.374313,0 18.785413,8.411104 18.785413,18.785416 0,10.374313 -8.4111,18.785417 -18.785413,18.785417 -10.374312,0 -18.785416,-8.411104 -18.785416,-18.785417 z"
         stroke="#172c51"
         stroke-width="1.21267"
         stroke-linecap="butt"
         stroke-linejoin="miter"
         stroke-miterlimit="8"
         stroke-opacity="1"
         fill="#db8235"
         fill-rule="evenodd"
         fill-opacity="1"
         id="path43" /><path
         d="m 146.97877,-27.198926 c 0,-10.447867 8.4111,-18.917709 18.78542,-18.917709 10.37431,0 18.78541,8.469842 18.78541,18.917709 0,10.448395 -8.4111,18.917708 -18.78541,18.917708 -10.37432,0 -18.78542,-8.469313 -18.78542,-18.917708 z"
         stroke="#172c51"
         stroke-width="1.21267"
         stroke-linecap="butt"
         stroke-linejoin="miter"
         stroke-miterlimit="8"
         stroke-opacity="1"
         fill="#dba97d"
         fill-rule="evenodd"
         fill-opacity="1"
         id="path44" /><path
         d="m 123.16627,23.733365 c 0,-10.374313 8.46931,-18.785417 18.91771,-18.785417 10.44839,0 18.91771,8.411104 18.91771,18.785417 0,10.374312 -8.46932,18.785416 -18.91771,18.785416 -10.4484,0 -18.91771,-8.411104 -18.91771,-18.785416 z"
         stroke="#172c51"
         stroke-width="1.21267"
         stroke-linecap="butt"
         stroke-linejoin="miter"
         stroke-miterlimit="8"
         stroke-opacity="1"
         fill="#db8235"
         fill-rule="evenodd"
         fill-opacity="1"
         id="path45" /><path
         d="m 147.24335,77.972947 c 0,-10.374312 8.41111,-18.785416 18.78542,-18.785416 10.37431,0 18.78542,8.411104 18.78542,18.785416 0,10.37431 -8.41111,18.78542 -18.78542,18.78542 -10.37431,0 -18.78542,-8.41111 -18.78542,-18.78542 z"
         stroke="#172c51"
         stroke-width="1.21267"
         stroke-linecap="butt"
         stroke-linejoin="miter"
         stroke-miterlimit="8"
         stroke-opacity="1"
         fill="#db8235"
         fill-rule="evenodd"
         fill-opacity="1"
         id="path46" /><path
         d="m 81.362104,72.152114 c 0,-10.374312 8.469313,-18.785416 18.917706,-18.785416 10.4484,0 18.91771,8.411104 18.91771,18.785416 0,10.374313 -8.46931,18.785413 -18.91771,18.785413 -10.448393,0 -18.917706,-8.4111 -18.917706,-18.785413 z"
         stroke="#172c51"
         stroke-width="1.21267"
         stroke-linecap="butt"
         stroke-linejoin="miter"
         stroke-miterlimit="8"
         stroke-opacity="1"
         fill="#000000"
         fill-rule="evenodd"
         fill-opacity="1"
         id="path47" /><path
         d="m 187.46002,22.939615 c 0,-10.374313 8.4111,-18.785417 18.78542,-18.785417 10.37431,0 18.78541,8.411104 18.78541,18.785417 0,10.374312 -8.4111,18.785416 -18.78541,18.785416 -10.37432,0 -18.78542,-8.411104 -18.78542,-18.785416 z"
         stroke="#172c51"
         stroke-width="1.21267"
         stroke-linecap="butt"
         stroke-linejoin="miter"
         stroke-miterlimit="8"
         stroke-opacity="1"
         fill="#dba97d"
         fill-rule="evenodd"
         fill-opacity="1"
         id="path48" /><path
         d="m 200.95377,86.704197 c 0,-10.37431 8.46931,-18.785416 18.91771,-18.785416 10.44839,0 18.91771,8.411106 18.91771,18.785416 0,10.37431 -8.46932,18.785423 -18.91771,18.785423 -10.4484,0 -18.91771,-8.411113 -18.91771,-18.785423 z"
         stroke="#172c51"
         stroke-width="1.21267"
         stroke-linecap="butt"
         stroke-linejoin="miter"
         stroke-miterlimit="8"
         stroke-opacity="1"
         fill="#dba97d"
         fill-rule="evenodd"
         fill-opacity="1"
         id="path49" /><path
         d="m 162.3246,154.43753 c 0,-10.37431 8.41111,-18.78541 18.78542,-18.78541 10.37431,0 18.78542,8.4111 18.78542,18.78541 0,10.37431 -8.41111,18.78542 -18.78542,18.78542 -10.37431,0 -18.78542,-8.41111 -18.78542,-18.78542 z"
         stroke="#172c51"
         stroke-width="1.21267"
         stroke-linecap="butt"
         stroke-linejoin="miter"
         stroke-miterlimit="8"
         stroke-opacity="1"
         fill="#dba97d"
         fill-rule="evenodd"
         fill-opacity="1"
         id="path50" /><path
         d="m 16.539188,51.779198 c 0,-10.374313 8.411104,-18.785417 18.785417,-18.785417 10.374312,0 18.785416,8.411104 18.785416,18.785417 0,10.374312 -8.411104,18.785416 -18.785416,18.785416 -10.374313,0 -18.785417,-8.411104 -18.785417,-18.785416 z"
         stroke="#172c51"
         stroke-width="1.21267"
         stroke-linecap="butt"
         stroke-linejoin="miter"
         stroke-miterlimit="8"
         stroke-opacity="1"
         fill="#db8235"
         fill-rule="evenodd"
         fill-opacity="1"
         id="path51" /><path
         d="m -21.296228,9.04899 c 0,-10.448396 8.469313,-18.917708 18.9177083,-18.917708 10.4483957,0 18.9177077,8.469312 18.9177077,18.917708 0,10.448395 -8.469312,18.917708 -18.9177077,18.917708 -10.4483953,0 -18.9177083,-8.469313 -18.9177083,-18.917708 z"
         stroke="#172c51"
         stroke-width="1.21267"
         stroke-linecap="butt"
         stroke-linejoin="miter"
         stroke-miterlimit="8"
         stroke-opacity="1"
         fill="#dba97d"
         fill-rule="evenodd"
         fill-opacity="1"
         id="path52" /><path
         d="m 22.360022,-31.829135 c 0,-10.374841 8.411104,-18.785416 18.785416,-18.785416 10.374312,0 18.785416,8.410575 18.785416,18.785416 0,10.374313 -8.411104,18.785417 -18.785416,18.785417 -10.374312,0 -18.785416,-8.411104 -18.785416,-18.785417 z"
         stroke="#172c51"
         stroke-width="1.21267"
         stroke-linecap="butt"
         stroke-linejoin="miter"
         stroke-miterlimit="8"
         stroke-opacity="1"
         fill="#dba97d"
         fill-rule="evenodd"
         fill-opacity="1"
         id="path53" /><path
         d="m -37.171228,76.120867 c 0,-10.374315 8.411104,-18.78542 18.785417,-18.78542 10.3743122,0 18.78541625,8.411105 18.78541625,18.78542 0,10.37431 -8.41110405,18.78541 -18.78541625,18.78541 -10.374313,0 -18.785417,-8.4111 -18.785417,-18.78541 z"
         stroke="#172c51"
         stroke-width="1.21267"
         stroke-linecap="butt"
         stroke-linejoin="miter"
         stroke-miterlimit="8"
         stroke-opacity="1"
         fill="#dba97d"
         fill-rule="evenodd"
         fill-opacity="1"
         id="path54" /><path
         d="m 26.064188,175.33962 c 0,-10.37432 8.411104,-18.78542 18.785417,-18.78542 10.374312,0 18.785416,8.4111 18.785416,18.78542 0,10.37431 -8.411104,18.78541 -18.785416,18.78541 -10.374313,0 -18.785417,-8.4111 -18.785417,-18.78541 z"
         stroke="#172c51"
         stroke-width="1.21267"
         stroke-linecap="butt"
         stroke-linejoin="miter"
         stroke-miterlimit="8"
         stroke-opacity="1"
         fill="#dba97d"
         fill-rule="evenodd"
         fill-opacity="1"
         id="path55" /><path
         d="m -18.650395,137.5042 c 0,-10.37431 8.411105,-18.78542 18.78541692,-18.78542 10.37431208,0 18.78541608,8.41111 18.78541608,18.78542 0,10.37431 -8.411104,18.78542 -18.78541608,18.78542 -10.37431192,0 -18.78541692,-8.41111 -18.78541692,-18.78542 z"
         stroke="#172c51"
         stroke-width="1.21267"
         stroke-linecap="butt"
         stroke-linejoin="miter"
         stroke-miterlimit="8"
         stroke-opacity="1"
         fill="#dba97d"
         fill-rule="evenodd"
         fill-opacity="1"
         id="path56" /><path
         d="m 112.31835,130.22816 c 0,-10.4484 8.41111,-18.91771 18.78542,-18.91771 10.37431,0 18.78542,8.46931 18.78542,18.91771 0,10.44839 -8.41111,18.91771 -18.78542,18.91771 -10.37431,0 -18.78542,-8.46932 -18.78542,-18.91771 z"
         stroke="#172c51"
         stroke-width="1.21267"
         stroke-linecap="butt"
         stroke-linejoin="miter"
         stroke-miterlimit="8"
         stroke-opacity="1"
         fill="#db8235"
         fill-rule="evenodd"
         fill-opacity="1"
         id="path57" /><path
         d="m 40.880855,126.78857 c 0,-10.44839 8.469312,-18.9177 18.917708,-18.9177 10.448396,0 18.917708,8.46931 18.917708,18.9177 0,10.4484 -8.469312,18.91771 -18.917708,18.91771 -10.448396,0 -18.917708,-8.46931 -18.917708,-18.91771 z"
         stroke="#172c51"
         stroke-width="1.21267"
         stroke-linecap="butt"
         stroke-linejoin="miter"
         stroke-miterlimit="8"
         stroke-opacity="1"
         fill="#db8235"
         fill-rule="evenodd"
         fill-opacity="1"
         id="path58" /><path
         d="m 100.4121,185.26149 c 0,-10.4484 8.41111,-18.91771 18.78542,-18.91771 10.37431,0 18.78542,8.46931 18.78542,18.91771 0,10.4484 -8.41111,18.91771 -18.78542,18.91771 -10.37431,0 -18.78542,-8.46931 -18.78542,-18.91771 z"
         stroke="#172c51"
         stroke-width="1.21267"
         stroke-linecap="butt"
         stroke-linejoin="miter"
         stroke-miterlimit="8"
         stroke-opacity="1"
         fill="#dba97d"
         fill-rule="evenodd"
         fill-opacity="1"
         id="path59" /></g><g
       id="g29"
       transform="matrix(0.32639356,0,0,0.32639356,-512.35799,202.95139)"><path
         d="m 594.18338,102.90839 c 0,-56.914523 46.14068,-103.055213 103.0552,-103.055213 56.91452,0 103.05521,46.14069 103.05521,103.055213 0,56.91452 -46.14069,103.0552 -103.05521,103.0552 -56.91452,0 -103.0552,-46.14068 -103.0552,-103.0552 z"
         stroke="#172c51"
         stroke-width="1.21267"
         stroke-linecap="butt"
         stroke-linejoin="miter"
         stroke-miterlimit="8"
         stroke-opacity="1"
         fill="#db8235"
         fill-rule="evenodd"
         fill-opacity="1"
         id="path1-6" /><path
         d="m 632.01879,102.90839 c 0,-36.091823 29.19942,-65.352093 65.21979,-65.352093 36.02038,0 65.21979,29.26027 65.21979,65.352093 0,36.09181 -29.19941,65.35208 -65.21979,65.35208 -36.02037,0 -65.21979,-29.26027 -65.21979,-65.35208 z"
         stroke="#172c51"
         stroke-width="1.21267"
         stroke-linecap="butt"
         stroke-linejoin="miter"
         stroke-miterlimit="8"
         stroke-opacity="1"
         fill="#db8235"
         fill-rule="evenodd"
         fill-opacity="1"
         id="path2-7" /><path
         d="m 687.05212,102.90838 c 0,-5.625035 4.56142,-10.186455 10.18646,-10.186455 5.62504,0 10.18646,4.56142 10.18646,10.186455 0,5.62504 -4.56142,10.18646 -10.18646,10.18646 -5.62504,0 -10.18646,-4.56142 -10.18646,-10.18646 z"
         stroke="#172c51"
         stroke-width="1.21267"
         stroke-linecap="butt"
         stroke-linejoin="miter"
         stroke-miterlimit="8"
         stroke-opacity="1"
         fill="#000000"
         fill-rule="evenodd"
         fill-opacity="1"
         id="path3-5" /></g><path
       d="m -395.71364,232.11416 h 36.31366 v -4.42586 l 8.85173,8.85173 -8.85173,8.85172 v -4.42586 h -36.31366 z"
       stroke="#000000"
       stroke-width="0.395808"
       stroke-linecap="butt"
       stroke-linejoin="miter"
       stroke-miterlimit="8"
       stroke-opacity="1"
       fill="#000000"
       fill-rule="evenodd"
       fill-opacity="1"
       id="path24-2" /><text
       xml:space="preserve"
       transform="matrix(0.26458333,0,0,0.26458333,-679.85282,160.77569)"
       id="text29"
       style="font-size:40px;line-height:1.25;font-family:sans-serif;white-space:pre;shape-inside:url(#rect30)"><tspan
         x="571.66602"
         y="136.29735"
         id="tspan2">Ego</tspan></text><text
       xml:space="preserve"
       transform="matrix(0.26458333,0,0,0.26458333,-729.4392,250.21541)"
       id="text29-4"
       style="font-size:40px;line-height:1.25;font-family:sans-serif;white-space:pre;shape-inside:url(#rect30-1);display:inline"><tspan
         x="571.66602"
         y="136.29735"
         id="tspan3">Degree-1 Alter</tspan></text><text
       xml:space="preserve"
       transform="matrix(0.26458333,0,0,0.26458333,-587.70885,160.37663)"
       id="text29-0"
       style="font-size:40px;line-height:1.25;font-family:sans-serif;white-space:pre;shape-inside:url(#rect30-4);display:inline"><tspan
         x="571.66602"
         y="136.29735"
         id="tspan4">Degree-2 Alter</tspan></text><path
       style="fill:#ff6600;stroke:#666666;stroke-width:1.465;stroke-linecap:butt;stroke-linejoin:miter;stroke-dasharray:none;stroke-opacity:1;marker-end:url(#Triangle)"
       d="m -511.34479,197.8548 35.24352,35.97775"
       id="path60"
       sodipodi:nodetypes="cc" /><path
       style="fill:#ff6600;stroke:#666666;stroke-width:1.465;stroke-linecap:butt;stroke-linejoin:miter;stroke-dasharray:none;stroke-opacity:1;marker-end:url(#Triangle-3)"
       d="M -505.08688,276.65276 -489.66783,259.031"
       id="path60-6"
       sodipodi:nodetypes="cc" /><path
       style="fill:#ff6600;stroke:#666666;stroke-width:1.465;stroke-linecap:butt;stroke-linejoin:miter;stroke-dasharray:none;stroke-opacity:1;marker-end:url(#Triangle-5)"
       d="m -415.01232,200.91794 -20.55871,17.98888"
       id="path60-65"
       sodipodi:nodetypes="cc" /></g></svg>
