<?xml version="1.0" encoding="UTF-8" standalone="no"?>
<!-- Created with Inkscape (http://www.inkscape.org/) -->

<svg
   width="464.80008mm"
   height="85.932343mm"
   viewBox="0 0 464.80008 85.932343"
   version="1.1"
   id="svg1"
   xml:space="preserve"
   inkscape:version="1.4-beta (62f545b, 2024-04-22)"
   sodipodi:docname="ProtegonistLogo.svg"
   xmlns:inkscape="http://www.inkscape.org/namespaces/inkscape"
   xmlns:sodipodi="http://sodipodi.sourceforge.net/DTD/sodipodi-0.dtd"
   xmlns:xlink="http://www.w3.org/1999/xlink"
   xmlns="http://www.w3.org/2000/svg"
   xmlns:svg="http://www.w3.org/2000/svg"><sodipodi:namedview
     id="namedview1"
     pagecolor="#ffffff"
     bordercolor="#666666"
     borderopacity="1.0"
     inkscape:showpageshadow="2"
     inkscape:pageopacity="0.0"
     inkscape:pagecheckerboard="0"
     inkscape:deskcolor="#d1d1d1"
     inkscape:document-units="mm"
     inkscape:zoom="0.36035003"
     inkscape:cx="1121.1321"
     inkscape:cy="-34.688495"
     inkscape:window-width="1920"
     inkscape:window-height="1011"
     inkscape:window-x="1920"
     inkscape:window-y="32"
     inkscape:window-maximized="1"
     inkscape:current-layer="svg1" /><defs
     id="defs1"><linearGradient
       inkscape:collect="always"
       id="linearGradient148691"><stop
         style="stop-color:#ffffff;stop-opacity:1"
         offset="0"
         id="stop148687" /><stop
         style="stop-color:#ffffff;stop-opacity:0"
         offset="1"
         id="stop148689" /></linearGradient><rect
       x="-386.34412"
       y="-4.7849627"
       width="2442.3489"
       height="966.67004"
       id="rect9298" /><linearGradient
       inkscape:collect="always"
       xlink:href="#linearGradient148691"
       id="linearGradient1021"
       x1="87.996284"
       y1="79.714691"
       x2="92.760002"
       y2="79.714691"
       gradientUnits="userSpaceOnUse" /><linearGradient
       inkscape:collect="always"
       xlink:href="#linearGradient148691"
       id="linearGradient1053"
       x1="87.813591"
       y1="84.441116"
       x2="92.381073"
       y2="84.441116"
       gradientUnits="userSpaceOnUse" /></defs><rect
     style="fill:#1f78b4;fill-opacity:1;stroke:#3a3a3a;stroke-width:2.229;stroke-linecap:round;stroke-dasharray:none;stroke-opacity:1"
     id="rect1"
     width="462.57108"
     height="83.703339"
     x="1.1145"
     y="1.1145"
     ry="9.5451174" /><g
     inkscape:label="Layer 1"
     inkscape:groupmode="layer"
     id="layer1"
     transform="translate(127.40375,-106.08451)"><g
       id="g1"
       transform="translate(-120.60882,112.2172)"><g
         id="layer3"
         inkscape:label="Layer 3"
         transform="translate(196.14503,-45.602168)"><g
           aria-label="ProtEG    nist"
           transform="matrix(0.28178601,0,0,0.28178601,-95.484387,27.365296)"
           id="text9296"
           style="font-size:346.667px;line-height:1.25;white-space:pre;shape-inside:url(#rect9298)"><path
             d="m -357.22372,81.705553 q 24.26669,-5.893339 47.49338,-5.893339 18.02668,0 32.58669,4.506671 14.90668,4.160004 25.30669,13.520013 10.74668,9.013342 16.29335,23.573352 5.89334,14.56002 5.89334,35.01337 0,20.80002 -5.89334,35.7067 -5.89334,14.56001 -16.64001,23.92002 -10.74668,9.01334 -26.00003,13.17335 -14.90668,4.16 -33.28003,4.16 h -14.56001 v 89.09342 h -31.20003 z M -326.02369,201.999 h 12.48001 q 11.78668,0 21.14668,-2.42667 9.70668,-2.77334 16.29335,-8.66667 6.58668,-5.89334 10.05335,-15.25335 3.46667,-9.36001 3.46667,-23.22669 0,-13.86668 -3.46667,-23.22669 -3.46667,-9.70668 -9.70668,-15.25335 -5.89334,-5.89334 -14.56001,-8.32 -8.66668,-2.42667 -19.06669,-2.42667 -9.01334,0 -16.64001,1.04 z"
             style="font-family:'Ubuntu Condensed';-inkscape-font-specification:'Ubuntu Condensed, ';fill:#ffffff"
             id="path24024" /><path
             d="m -112.47728,163.51896 q -11.09334,-4.85333 -24.96002,-4.85333 -12.82668,0 -23.92002,4.50667 v 155.30681 h -29.81336 V 144.45228 q 10.05334,-4.85334 22.88002,-7.97334 13.17334,-3.46667 28.77336,-3.46667 8.32001,0 16.64001,1.04 8.32001,1.04 15.60002,3.81334 z"
             style="font-family:'Ubuntu Condensed';-inkscape-font-specification:'Ubuntu Condensed, ';fill:#ffffff"
             id="path24026" /><path
             d="m 35.895793,227.65236 q 0,21.49335 -3.813336,39.17337 -3.813337,17.33335 -11.786678,29.81336 -7.626674,12.48001 -19.76001875,19.41335 -11.78667725,6.93334 -28.08002625,6.93334 -16.293349,0 -28.426693,-6.93334 -12.133345,-6.93334 -20.106686,-19.41335 -7.626674,-12.48001 -11.440011,-29.81336 -3.813337,-17.68002 -3.813337,-39.17337 0,-21.14669 3.813337,-38.82671 3.813337,-17.68001 11.440011,-30.16002 7.973341,-12.82668 20.106686,-19.76002 12.133344,-6.93334 28.426693,-6.93334 16.293349,0 28.08002625,6.93334 12.13334475,6.93334 19.76001875,19.76002 7.973341,12.48001 11.786678,30.16002 3.813336,17.68002 3.813336,38.82671 z m -31.2000288,0 q 0,-15.25335 -1.733335,-27.73336 -1.733335,-12.82668 -5.5466719,-21.84002 -3.8133369,-9.36001 -10.0533423,-14.21335 -6.240006,-5.2 -14.906681,-5.2 -9.013342,0 -15.253348,5.2 -5.893339,4.85334 -10.053343,14.21335 -3.813336,9.01334 -5.546671,21.84002 -1.733335,12.48001 -1.733335,27.73336 0,15.25334 1.733335,28.08002 1.733335,12.48001 5.546671,21.49336 4.160004,9.01334 10.053343,14.21334 6.240006,4.85334 15.253348,4.85334 8.666675,0 14.906681,-4.85334 6.2400054,-5.2 10.0533423,-14.21334 3.8133369,-9.01335 5.5466719,-21.49336 1.733335,-12.82668 1.733335,-28.08002 z"
             style="font-family:'Ubuntu Condensed';-inkscape-font-specification:'Ubuntu Condensed, ';fill:#ffffff"
             id="path24028" /><path
             d="m 107.30897,136.47894 h 45.76004 v 25.65335 h -45.76004 v 100.18677 q 0,18.72001 6.58667,26.34669 6.93334,7.28 18.37335,7.28 5.89334,0 11.09335,-1.73333 5.54667,-1.73334 9.36,-4.16 l 5.89334,23.92002 q -14.21334,8.32001 -30.16003,8.32001 -25.65335,0 -38.480031,-14.21335 Q 77.495607,293.51909 77.495607,260.23905 V 87.598892 l 29.813363,-5.200005 z"
             style="font-family:'Ubuntu Condensed';-inkscape-font-specification:'Ubuntu Condensed, ';fill:#ffffff"
             id="path24030" /><path
             d="M 192.93546,318.47911 V 78.238883 h 107.81343 v 26.693357 h -76.6134 v 74.5334 h 69.33339 v 26.00003 h -69.33339 v 86.32008 h 82.16007 v 26.69336 z"
             style="font-family:'Ubuntu Condensed';-inkscape-font-specification:'Ubuntu Condensed, ';fill:#ffffff"
             id="path24032" /><path
             d="m 335.41507,198.18566 q 0,-33.97336 6.24001,-57.89339 6.24,-23.92002 17.68002,-38.8267 11.78667,-15.253346 28.08002,-21.840019 16.64002,-6.93334 37.09337,-6.93334 15.60001,0 28.42669,4.506671 12.82668,4.160004 20.80002,9.706676 l -9.70667,26.000022 q -7.97334,-5.54667 -17.33335,-9.01334 -9.36001,-3.81334 -21.49336,-3.81334 -30.16002,0 -43.33337,24.61336 -13.17335,24.26669 -13.17335,73.4934 0,26.34669 3.81334,45.06671 4.16001,18.72002 11.44001,30.5067 7.28001,11.78667 17.68002,17.33335 10.40001,5.54667 23.22669,5.54667 10.74667,0 18.37335,-2.42667 v -93.94676 h 31.20003 V 313.2791 q -9.36001,4.50667 -23.22669,7.62668 -13.86668,3.12 -29.12003,3.12 -18.72002,0 -34.6667,-7.28001 -15.94668,-7.62667 -27.73336,-22.88002 -11.44001,-15.60001 -18.02668,-39.17337 -6.24001,-23.92002 -6.24001,-56.50672 z"
             style="font-family:'Ubuntu Condensed';-inkscape-font-specification:'Ubuntu Condensed, ';fill:#ffffff"
             id="path24034" /><path
             d="m 795.78832,141.67894 q 12.82668,-3.81333 27.73336,-6.24 14.90668,-2.77334 27.38669,-2.77334 13.52001,0 24.61335,3.81334 11.09335,3.46667 18.72002,12.13334 7.97334,8.66668 12.13335,23.57336 4.50667,14.56001 4.50667,36.40003 V 318.47911 H 881.0684 V 211.01234 q 0,-27.04002 -6.93334,-39.52004 -6.93334,-12.48001 -26.00003,-12.48001 -10.05334,0 -22.53335,3.46667 v 156.00015 h -29.81336 z"
             style="font-family:'Ubuntu Condensed';-inkscape-font-specification:'Ubuntu Condensed, ';fill:#ffffff"
             id="path24036" /><path
             d="M 992.6947,318.47911 H 962.88133 V 136.47894 h 29.81337 z m -14.90669,-214.2402 q -7.97334,0 -13.86668,-5.200008 -5.54667,-5.546671 -5.54667,-14.560013 0,-9.013342 5.54667,-14.213347 5.89334,-5.546672 13.86668,-5.546672 7.97335,0 13.52002,5.546672 5.89334,5.200005 5.89334,14.213347 0,9.013342 -5.89334,14.560013 -5.54667,5.200008 -13.52002,5.200008 z"
             style="font-family:'Ubuntu Condensed';-inkscape-font-specification:'Ubuntu Condensed, ';fill:#ffffff"
             id="path24038" /><path
             d="m 1072.081,297.33242 q 13.1733,0 19.76,-7.28 6.9333,-7.62668 6.9333,-19.76002 0,-7.62668 -2.7733,-12.82668 -2.7733,-5.54667 -7.28,-9.70668 -4.5067,-4.16 -10.4,-7.28 -5.8934,-3.46667 -11.7867,-7.28001 -5.8933,-3.46667 -11.44,-7.97334 -5.5467,-4.85334 -10.0534,-10.74668 -4.16,-6.24001 -6.9333,-13.86668 -2.4267,-7.97334 -2.4267,-18.37335 0,-22.53335 13.8667,-36.40003 14.2134,-13.86668 38.1334,-13.86668 10.0533,0 19.0667,2.77333 9.0133,2.42667 14.9066,5.54667 l -6.5866,23.92003 q -6.24,-3.46667 -12.48,-5.20001 -6.24,-1.73333 -13.52,-1.73333 -11.0934,0 -17.6801,6.58667 -6.5866,6.24001 -6.5866,18.37335 0,6.93334 2.4266,12.13335 2.4267,4.85333 6.24,9.01334 4.16,3.81333 9.0134,7.28 5.2,3.46667 10.7467,6.58668 6.5866,3.81333 12.8266,8.32 6.5867,4.50668 11.44,10.74668 5.2,5.89334 8.3201,14.21335 3.12,7.97334 3.12,19.41335 0,23.92002 -14.2134,38.48004 -13.8667,14.56001 -40.9067,14.56001 -13.8667,0 -24.96,-3.81334 -11.0934,-3.81333 -16.64,-6.93334 l 6.24,-24.61335 q 5.2,2.77333 13.8667,6.24 9.0133,3.46667 19.76,3.46667 z"
             style="font-family:'Ubuntu Condensed';-inkscape-font-specification:'Ubuntu Condensed, ';fill:#ffffff"
             id="path24040" /><path
             d="m 1192.7209,136.47894 h 45.76 v 25.65335 h -45.76 v 100.18677 q 0,18.72001 6.5867,26.34669 6.9333,7.28 18.3733,7.28 5.8934,0 11.0934,-1.73333 5.5466,-1.73334 9.36,-4.16 l 5.8933,23.92002 q -14.2133,8.32001 -30.16,8.32001 -25.6534,0 -38.4801,-14.21335 -12.48,-14.56001 -12.48,-47.84005 V 87.598892 l 29.8134,-5.200005 z"
             style="font-family:'Ubuntu Condensed';-inkscape-font-specification:'Ubuntu Condensed, ';fill:#ffffff"
             id="path24042" /></g></g><g
         id="layer2"
         inkscape:label="Layer 2"
         transform="translate(196.14503,-45.602168)"><path
           style="fill:#ffffff;stroke:#ffffff;stroke-width:1.165;stroke-linecap:butt;stroke-linejoin:miter;stroke-miterlimit:4;stroke-dasharray:none;stroke-opacity:1"
           d="M 116.6536,64.225677 V 105.67751"
           id="path3210" /><path
           style="fill:#ffffff;stroke:#ffffff;stroke-width:1.165;stroke-linecap:butt;stroke-linejoin:miter;stroke-miterlimit:4;stroke-dasharray:none;stroke-opacity:1"
           d="M 119.06185,63.919432 V 105.37126"
           id="path3210-6" /><path
           style="fill:#ffffff;stroke:#ffffff;stroke-width:1.165;stroke-linecap:butt;stroke-linejoin:miter;stroke-miterlimit:4;stroke-dasharray:none;stroke-opacity:1"
           d="M 114.24536,66.266439 V 107.71827"
           id="path3210-2" /><path
           style="fill:#ffffff;stroke:#ffffff;stroke-width:1.165;stroke-linecap:butt;stroke-linejoin:miter;stroke-miterlimit:4;stroke-dasharray:none;stroke-opacity:1"
           d="M 121.47009,64.000548 V 105.45238"
           id="path3210-2-9" /><path
           style="fill:#ffffff;stroke:#ffffff;stroke-width:1.165;stroke-linecap:butt;stroke-linejoin:miter;stroke-miterlimit:4;stroke-dasharray:none;stroke-opacity:1"
           d="M 111.83712,63.843785 V 105.29562"
           id="path3210-2-1" /><path
           style="fill:#ffffff;stroke:#ffffff;stroke-width:5.865;stroke-linecap:butt;stroke-linejoin:miter;stroke-miterlimit:4;stroke-dasharray:none;stroke-opacity:1"
           d="M 81.097772,84.46354 116.6536,105.67751"
           id="path3485" /><path
           style="fill:#ffffff;stroke:#ffffff;stroke-width:1.165;stroke-linecap:butt;stroke-linejoin:miter;stroke-miterlimit:4;stroke-dasharray:none;stroke-opacity:1"
           d="M 81.09777,84.46354 66.689572,112.49405"
           id="path3522" /></g><g
         inkscape:label="Layer 1"
         id="layer1-3"
         transform="translate(196.14503,-45.602168)"><ellipse
           style="fill:none;fill-opacity:1;stroke:url(#linearGradient1021);stroke-width:6.575;stroke-linecap:square;stroke-linejoin:round;stroke-miterlimit:4;stroke-dasharray:none;stroke-opacity:1"
           id="path853"
           cx="81.397751"
           cy="83.921028"
           rx="32.061001"
           ry="32.060612" /><ellipse
           style="fill:none;fill-opacity:1;stroke:url(#linearGradient1053);stroke-width:3.94572;stroke-linecap:square;stroke-linejoin:round;stroke-miterlimit:4;stroke-dasharray:none;stroke-opacity:1"
           id="path853-0"
           cx="81.785385"
           cy="84.441116"
           rx="19.24"
           ry="19.23987" /><circle
           style="fill:#ffffff;stroke:#ffffff;stroke-width:1.81188;stroke-linecap:square;stroke-linejoin:round;stroke-miterlimit:4;stroke-dasharray:none;stroke-opacity:1"
           id="path1535-3"
           cx="116.76467"
           cy="104.97218"
           r="6.2321916" /><circle
           style="fill:#ffffff;stroke:#ffffff;stroke-width:1.81188;stroke-linecap:square;stroke-linejoin:round;stroke-miterlimit:4;stroke-dasharray:none;stroke-opacity:1"
           id="path1535-3-7"
           cx="116.76466"
           cy="64.108383"
           r="6.2321916" /><circle
           style="fill:#ffffff;stroke:#ffffff;stroke-width:1.81188;stroke-linecap:square;stroke-linejoin:round;stroke-miterlimit:4;stroke-dasharray:none;stroke-opacity:1"
           id="path1535-3-5"
           cx="80.935028"
           cy="84.540283"
           r="6.2321916" /></g></g></g></svg>
