<?xml version="1.0" encoding="UTF-8" standalone="no"?>
<!-- Created with Inkscape (http://www.inkscape.org/) -->

<svg
   width="468.79089mm"
   height="70.69622mm"
   viewBox="0 0 468.79089 70.69622"
   version="1.1"
   id="svg5"
   inkscape:version="1.1.2 (0a00cf5339, 2022-02-04)"
   sodipodi:docname="LogoPath.svg"
   xmlns:inkscape="http://www.inkscape.org/namespaces/inkscape"
   xmlns:sodipodi="http://sodipodi.sourceforge.net/DTD/sodipodi-0.dtd"
   xmlns:xlink="http://www.w3.org/1999/xlink"
   xmlns="http://www.w3.org/2000/svg"
   xmlns:svg="http://www.w3.org/2000/svg">
  <sodipodi:namedview
     id="namedview7"
     pagecolor="#ffffff"
     bordercolor="#666666"
     borderopacity="1.0"
     inkscape:pageshadow="2"
     inkscape:pageopacity="0.0"
     inkscape:pagecheckerboard="0"
     inkscape:document-units="mm"
     showgrid="false"
     inkscape:zoom="0.18796998"
     inkscape:cx="1643.8795"
     inkscape:cy="550.61984"
     inkscape:window-width="1920"
     inkscape:window-height="1016"
     inkscape:window-x="1920"
     inkscape:window-y="27"
     inkscape:window-maximized="1"
     inkscape:current-layer="layer3" />
  <defs
     id="defs2">
    <linearGradient
       inkscape:collect="always"
       id="linearGradient148691">
      <stop
         style="stop-color:#ffffff;stop-opacity:1"
         offset="0"
         id="stop148687" />
      <stop
         style="stop-color:#ffffff;stop-opacity:0"
         offset="1"
         id="stop148689" />
    </linearGradient>
    <rect
       x="-386.34412"
       y="-4.7849627"
       width="2442.3489"
       height="966.67002"
       id="rect9298" />
    <linearGradient
       inkscape:collect="always"
       xlink:href="#linearGradient148691"
       id="linearGradient1021"
       x1="87.996284"
       y1="79.714691"
       x2="92.760002"
       y2="79.714691"
       gradientUnits="userSpaceOnUse" />
  </defs>
  <g
     inkscape:groupmode="layer"
     id="layer3"
     inkscape:label="Layer 3"
     transform="translate(210.05722,-48.572917)">
    <g
       aria-label="ProtEG    nist"
       transform="matrix(0.28178601,0,0,0.28178601,-117.18033,30.011131)"
       id="text9296"
       style="font-size:346.667px;line-height:1.25;white-space:pre;shape-inside:url(#rect9298)">
      <path
         d="m -328.62234,217.32853 v 96.65374 H -359.7682 V 67.523702 h 78.54174 q 35.71618,0 54.67453,21.158874 19.12762,21.158874 19.12762,53.997444 0,35.54691 -18.95835,55.01307 -18.78908,19.46617 -54.33599,19.63544 z m 0,-123.060012 v 96.484462 h 47.39588 q 22.68231,0 32.6693,-13.3724 9.98699,-13.37241 9.98699,-34.36202 0,-18.95835 -9.98699,-33.85419 -9.98699,-14.895852 -32.6693,-14.895852 z"
         style="font-family:'Roboto Condensed';-inkscape-font-specification:'Roboto Condensed, ';fill:#ffffff"
         id="path151209" />
      <path
         d="m -109.58568,157.57587 q -23.02085,0 -32.16149,25.05211 v 131.35429 h -29.96096 V 130.83105 h 28.94534 l 0.67708,18.45054 q 12.01824,-21.83596 34.02347,-21.83596 7.95574,0 11.848968,2.3698 l 0.169271,29.11461 q -6.601569,-1.35417 -13.541679,-1.35417 z"
         style="font-family:'Roboto Condensed';-inkscape-font-specification:'Roboto Condensed, ';fill:#ffffff"
         id="path151211" />
      <path
         d="m -75.731491,213.77384 q 0,-42.82556 20.48179,-64.49225 20.48179,-21.83596 50.1042137,-21.83596 29.9609653,0 50.4427553,21.83596 20.651061,21.66669 20.651061,64.49225 v 17.43491 q 0,42.82556 -20.651061,64.49225 -20.48179,21.66669 -50.1042133,21.66669 -29.7916947,0 -50.4427557,-21.66669 -20.48179,-21.66669 -20.48179,-64.49225 z m 29.960966,17.43491 q 0,30.29951 11.679698,45.5339 11.679698,15.06512 29.2838817,15.06512 39.6094123,0 40.7943093,-57.2136 v -20.82033 q 0,-29.96097 -11.84897,-45.19536 -11.679698,-15.40366 -29.2838813,-15.40366 -17.4349127,0 -29.1146107,15.40366 -11.510427,15.23439 -11.510427,45.19536 z"
         style="font-family:'Roboto Condensed';-inkscape-font-specification:'Roboto Condensed, ';fill:#ffffff"
         id="path151213" />
      <path
         d="m 171.2349,313.98227 q -8.63282,3.38542 -20.98961,3.38542 -14.5573,0 -25.55992,-10.66408 -10.83334,-10.66407 -10.83334,-38.25524 V 154.86753 H 85.922316 V 130.83105 H 113.85203 V 86.312782 H 143.813 v 44.518268 h 27.59117 v 24.03648 H 143.813 v 113.75011 q 0,14.04949 4.73958,17.94273 4.90886,3.89323 11.00262,3.89323 6.4323,0 11.84897,-2.03125 z"
         style="font-family:'Roboto Condensed';-inkscape-font-specification:'Roboto Condensed, ';fill:#ffffff"
         id="path151215" />
      <path
         d="M 211.18285,313.98227 V 67.523702 H 342.02932 V 94.268518 H 242.32871 V 173.48734 H 329.334 v 26.57555 h -87.00529 v 87.34383 h 101.39332 v 26.57555 z"
         style="font-family:'Roboto Condensed';-inkscape-font-specification:'Roboto Condensed, ';fill:#ffffff"
         id="path151217" />
      <path
         d="m 537.87586,191.2608 v 91.91415 q -4.0625,5.41667 -12.35678,13.54168 -8.12501,8.125 -22.85158,14.38803 -14.72658,6.26303 -38.59379,6.26303 -38.25525,0 -62.29173,-25.72919 -23.86721,-25.7292 -23.86721,-77.86466 v -46.21098 q 0,-51.62765 20.65106,-77.526116 20.82034,-25.898462 62.29173,-25.898462 35.88545,0 55.52089,19.973977 19.63543,19.973981 21.49741,55.520881 H 506.73 q -1.86198,-22.85158 -12.8646,-35.71618 -10.83334,-13.033861 -33.00784,-13.033861 -28.09898,0 -39.94795,18.789081 -11.6797,18.61981 -11.84897,56.36724 v 47.73442 q 0,39.27087 14.89584,58.22922 15.06512,18.78908 40.2865,18.78908 21.49742,0 30.13024,-6.4323 8.63282,-6.43229 12.52605,-9.81771 V 217.66707 H 461.70392 V 191.2608 Z"
         style="font-family:'Roboto Condensed';-inkscape-font-specification:'Roboto Condensed, ';fill:#ffffff"
         id="path151219" />
      <path
         d="m 966.80855,153.85191 q -11.00261,0 -19.97397,7.44792 -8.8021,7.44792 -14.38804,19.46617 V 313.98227 H 902.48558 V 130.83105 h 28.26825 l 0.84636,19.46617 q 17.43491,-22.85159 44.51827,-22.85159 22.51304,0 35.88544,15.23439 13.3724,15.23439 13.3724,51.28911 V 313.98227 H 995.41535 V 193.63059 q 0,-21.49742 -7.10938,-30.63805 -7.10938,-9.14063 -21.49742,-9.14063 z"
         style="font-family:'Roboto Condensed';-inkscape-font-specification:'Roboto Condensed, ';fill:#ffffff"
         id="path151221" />
      <path
         d="m 1071.0795,82.250278 q 0,-7.617195 4.2318,-12.864595 4.2318,-5.247401 12.6953,-5.247401 8.2943,0 12.6954,5.247401 4.401,5.2474 4.401,12.864595 0,7.278653 -4.401,12.526053 -4.4011,5.07813 -12.6954,5.07813 -8.4635,0 -12.6953,-5.07813 -4.2318,-5.2474 -4.2318,-12.526053 z m 31.4844,48.580772 v 183.15122 h -29.7917 V 130.83105 Z"
         style="font-family:'Roboto Condensed';-inkscape-font-specification:'Roboto Condensed, ';fill:#ffffff"
         id="path151223" />
      <path
         d="m 1238.8271,267.0942 q 0,-10.4948 -8.125,-17.60418 -7.9558,-7.10938 -30.6381,-16.75783 -22.6823,-9.64845 -35.7161,-19.63544 -14.7266,-11.34115 -14.7266,-33.68492 0,-21.83596 15.9115,-36.90108 15.9114,-15.06512 42.1484,-15.06512 28.099,0 43.6719,15.91148 15.573,15.91147 15.573,39.60941 h -29.7917 q 0,-11.34116 -7.6172,-20.48179 -7.6172,-9.30991 -21.836,-9.30991 -15.0651,0 -21.6667,7.6172 -6.4323,7.61719 -6.4323,17.60418 0,9.98699 6.4323,15.57293 6.4323,5.41667 25.56,13.88022 27.7604,11.00262 42.487,22.85159 14.7266,11.84897 14.7266,34.02347 0,24.20575 -16.5886,38.42451 -16.5886,14.21877 -43.8412,14.21877 -31.1459,0 -47.5651,-17.77346 -16.4193,-17.77345 -16.4193,-40.45577 h 29.9609 q 0.8464,19.46617 11.6797,26.06774 10.8334,6.4323 22.3438,6.4323 30.4688,0 30.4688,-24.5443 z"
         style="font-family:'Roboto Condensed';-inkscape-font-specification:'Roboto Condensed, ';fill:#ffffff"
         id="path151225" />
      <path
         d="m 1374.7516,313.98227 q -8.6328,3.38542 -20.9896,3.38542 -14.5573,0 -25.5599,-10.66408 -10.8334,-10.66407 -10.8334,-38.25524 V 154.86753 h -27.9297 v -24.03648 h 27.9297 V 86.312782 h 29.961 v 44.518268 h 27.5912 v 24.03648 h -27.5912 v 113.75011 q 0,14.04949 4.7396,17.94273 4.9088,3.89323 11.0026,3.89323 6.4323,0 11.849,-2.03125 z"
         style="font-family:'Roboto Condensed';-inkscape-font-specification:'Roboto Condensed, ';fill:#ffffff"
         id="path151227" />
    </g>
  </g>
  <g
     inkscape:groupmode="layer"
     id="layer2"
     inkscape:label="Layer 2"
     transform="translate(210.05722,-48.572917)">
    <path
       style="fill:#ffffff;stroke:#ffffff;stroke-width:1.165;stroke-linecap:butt;stroke-linejoin:miter;stroke-miterlimit:4;stroke-dasharray:none;stroke-opacity:1"
       d="M 116.6536,64.225677 V 105.67751"
       id="path3210" />
    <path
       style="fill:#ffffff;stroke:#ffffff;stroke-width:1.165;stroke-linecap:butt;stroke-linejoin:miter;stroke-miterlimit:4;stroke-dasharray:none;stroke-opacity:1"
       d="M 119.06185,63.919432 V 105.37126"
       id="path3210-6" />
    <path
       style="fill:#ffffff;stroke:#ffffff;stroke-width:1.165;stroke-linecap:butt;stroke-linejoin:miter;stroke-miterlimit:4;stroke-dasharray:none;stroke-opacity:1"
       d="M 114.24536,66.266439 V 107.71827"
       id="path3210-2" />
    <path
       style="fill:#ffffff;stroke:#ffffff;stroke-width:1.165;stroke-linecap:butt;stroke-linejoin:miter;stroke-miterlimit:4;stroke-dasharray:none;stroke-opacity:1"
       d="M 121.47009,64.000548 V 105.45238"
       id="path3210-2-9" />
    <path
       style="fill:#ffffff;stroke:#ffffff;stroke-width:1.165;stroke-linecap:butt;stroke-linejoin:miter;stroke-miterlimit:4;stroke-dasharray:none;stroke-opacity:1"
       d="M 111.83712,63.843785 V 105.29562"
       id="path3210-2-1" />
    <path
       style="fill:#ffffff;stroke:#ffffff;stroke-width:5.865;stroke-linecap:butt;stroke-linejoin:miter;stroke-miterlimit:4;stroke-dasharray:none;stroke-opacity:1"
       d="M 81.097772,84.46354 116.6536,105.67751"
       id="path3485" />
    <path
       style="fill:#ffffff;stroke:#ffffff;stroke-width:1.165;stroke-linecap:butt;stroke-linejoin:miter;stroke-miterlimit:4;stroke-dasharray:none;stroke-opacity:1"
       d="M 81.09777,84.46354 66.689572,112.49405"
       id="path3522" />
  </g>
  <g
     inkscape:label="Layer 1"
     inkscape:groupmode="layer"
     id="layer1"
     transform="translate(210.05722,-48.572917)">
    <ellipse
       style="fill:none;fill-opacity:1;stroke:url(#linearGradient1021);stroke-width:6.575;stroke-linecap:square;stroke-linejoin:round;stroke-miterlimit:4;stroke-dasharray:none;stroke-opacity:1"
       id="path853"
       cx="81.397751"
       cy="83.921028"
       rx="32.061001"
       ry="32.060612" />
    <circle
       style="fill:#ffffff;fill-opacity:1;stroke:#ffffff;stroke-width:3.94572;stroke-linecap:square;stroke-linejoin:round;stroke-miterlimit:4;stroke-dasharray:none;stroke-opacity:1"
       id="path853-0"
       cx="81.785385"
       cy="84.441116"
       r="19.23987" />
    <circle
       style="fill:#ffffff;stroke:#ffffff;stroke-width:1.81188;stroke-linecap:square;stroke-linejoin:round;stroke-miterlimit:4;stroke-dasharray:none;stroke-opacity:1"
       id="path1535-3"
       cx="116.76467"
       cy="104.97218"
       r="6.2321916" />
    <circle
       style="fill:#ffffff;stroke:#ffffff;stroke-width:1.81188;stroke-linecap:square;stroke-linejoin:round;stroke-miterlimit:4;stroke-dasharray:none;stroke-opacity:1"
       id="path1535-3-7"
       cx="116.76466"
       cy="64.108383"
       r="6.2321916" />
    <circle
       style="fill:#ffffff;stroke:#ffffff;stroke-width:1.81188;stroke-linecap:square;stroke-linejoin:round;stroke-miterlimit:4;stroke-dasharray:none;stroke-opacity:1"
       id="path1535-3-5"
       cx="80.935028"
       cy="84.540283"
       r="6.2321916" />
  </g>
</svg>
